<svg xmlns="http://www.w3.org/2000/svg" width="25.374" height="22.837" viewBox="0 0 25.374 22.837">
  <path id="_001-suitcase" data-name="001-suitcase" d="M24.106,3.806h-5.5V2.115A2.117,2.117,0,0,0,16.493,0H8.881A2.117,2.117,0,0,0,6.766,2.115V3.806h-5.5A1.269,1.269,0,0,0,0,5.075v9.414a1.274,1.274,0,0,0,.846,1.194v5.886a1.269,1.269,0,0,0,1.269,1.269H23.26a1.269,1.269,0,0,0,1.269-1.269V15.683a1.275,1.275,0,0,0,.846-1.194V5.075A1.269,1.269,0,0,0,24.106,3.806ZM7.612,2.115A1.269,1.269,0,0,1,8.881.846h7.612a1.269,1.269,0,0,1,1.269,1.269V3.806h-.846V2.115a.423.423,0,0,0-.423-.423H8.881a.423.423,0,0,0-.423.423V3.806H7.612ZM16.07,3.806H9.3V2.537H16.07Zm7.612,17.762a.423.423,0,0,1-.423.423H2.115a.423.423,0,0,1-.423-.423v-5.74L11,17.111v1.074a1.269,1.269,0,0,0,1.269,1.269h.846a1.269,1.269,0,0,0,1.269-1.269V17.111l9.3-1.283Zm-10.15-3.383a.423.423,0,0,1-.423.423h-.846a.423.423,0,0,1-.423-.423V15.648a.423.423,0,0,1,.423-.423h.846a.423.423,0,0,1,.423.423Zm11-3.7a.423.423,0,0,1-.364.419l-.117.016-9.669,1.333v-.61a1.269,1.269,0,0,0-1.269-1.269h-.846A1.269,1.269,0,0,0,11,15.648v.61L1.21,14.908a.423.423,0,0,1-.364-.419V5.075a.423.423,0,0,1,.423-.423H24.106a.423.423,0,0,1,.423.423Zm0,0" fill="#48B7FD"/>
</svg>
