<svg id="_002-worldwide" data-name="002-worldwide" xmlns="http://www.w3.org/2000/svg" width="25.374" height="25.369" viewBox="0 0 25.374 25.369">
  <g id="Group_10" data-name="Group 10" transform="translate(0 0)">
    <path id="Path_49" data-name="Path 49" d="M12.692.05A12.685,12.685,0,0,0,1.029,7.742l-.158.052.061.184A12.684,12.684,0,1,0,12.692.05Zm9.95,19.08-.651-.651V16.963a.422.422,0,0,0-.042-.189L20.3,13.48V11.889a.423.423,0,0,0-.188-.352l-1.268-.846a.423.423,0,0,0-.338-.058l-1.553.388L14.341,9.9l-.359-2.515.995-.994h2.136l.719,1.08a.423.423,0,0,0,.282.182l2.537.423a.419.419,0,0,0,.2-.016l2.337-.779A11.8,11.8,0,0,1,22.641,19.13ZM20.9,4.216l-.688.458-1.917-.383L17.05,3.877a.415.415,0,0,0-.236-.009l-1.572.393-.689-.23.511-1.022h1.43a.423.423,0,0,0,.189-.044l1.463-.731A11.882,11.882,0,0,1,20.9,4.216ZM8.057,1.84l1.015.677a.422.422,0,0,0,.165.065l2.049.342-.2.6-1.068.356a.423.423,0,0,0-.229.183L8.575,6.084l-1.95,1.17L3.75,7.665a.423.423,0,0,0-.364.418V9.352a.423.423,0,0,0,.124.3l.722.722V11.1L2.473,9.926,1.835,8.012A11.907,11.907,0,0,1,8.057,1.84ZM6.853,15.7,4.942,15.32,4.232,13.9V12.91l1.575-1.575L6.39,12.5a.423.423,0,0,0,.378.234h2.72l1.145,1.909a.423.423,0,0,0,.362.205h1.175l-.3,1.483-1.6,1.6a.423.423,0,0,0-.124.3v1.057L8.629,20.43a.423.423,0,0,0-.169.338V22.3l-.526-.174-.742-1.857V16.117A.423.423,0,0,0,6.853,15.7ZM5.582,22.2A11.836,11.836,0,0,1,1.365,9.278l.351,1.054a.423.423,0,0,0,.166.218l2.108,1.405-.481.481a.423.423,0,0,0-.124.3V14a.423.423,0,0,0,.044.189l.846,1.691a.423.423,0,0,0,.3.225l1.776.355v3.882a.423.423,0,0,0,.03.157l.846,2.114a.423.423,0,0,0,.259.244l1.268.423a.415.415,0,0,0,.131.022.423.423,0,0,0,.423-.423v-1.9l1.522-1.142A.423.423,0,0,0,11,19.5V18.406l1.567-1.567a.423.423,0,0,0,.115-.216l.423-2.114A.423.423,0,0,0,12.688,14H11.236l-1.145-1.909a.423.423,0,0,0-.362-.205H7.03L6.3,10.431a.423.423,0,0,0-.311-.228.414.414,0,0,0-.367.118l-.549.547V10.2a.423.423,0,0,0-.124-.3l-.722-.722V8.45l2.6-.371a.425.425,0,0,0,.158-.056L9.1,6.755a.423.423,0,0,0,.145-.145l1.188-1.98,1.12-.374a.418.418,0,0,0,.267-.267l.423-1.268a.423.423,0,0,0-.331-.55L9.464,1.763l-.43-.287a11.806,11.806,0,0,1,8.132.3l-.772.386H14.8a.423.423,0,0,0-.381.234l-.846,1.691a.423.423,0,0,0,.245.59l1.268.423a.415.415,0,0,0,.236.009L16.9,4.718l1.152.383a.311.311,0,0,0,.051.014l2.114.423a.42.42,0,0,0,.318-.063l.962-.642a11.928,11.928,0,0,1,1.272,1.7l-2.08.693-2.252-.375-.744-1.116a.423.423,0,0,0-.35-.188H14.8a.423.423,0,0,0-.3.124L13.235,6.939a.423.423,0,0,0-.12.359l.423,2.96a.423.423,0,0,0,.254.329l2.96,1.268a.418.418,0,0,0,.269.022l1.51-.378.923.616V13.58a.422.422,0,0,0,.042.189l1.649,3.293v1.591a.423.423,0,0,0,.124.3l.885.885A11.836,11.836,0,0,1,5.582,22.2Z" transform="translate(0 -0.05)" fill="#48B7FD"/>
  </g>
</svg>
