<svg id="_003-handshake" data-name="003-handshake" xmlns="http://www.w3.org/2000/svg" width="27.811" height="20.617" viewBox="0 0 27.811 20.617">
  <g id="Group_12" data-name="Group 12" transform="translate(0 0)">
    <g id="Group_11" data-name="Group 11" transform="translate(0 0)">
      <path id="Path_50" data-name="Path 50" d="M27.681,71.922l-5.394-5.394a.444.444,0,0,0-.628,0l-2.7,2.7a.444.444,0,0,0,0,.628l.269.269-.618.618a1.389,1.389,0,0,1-1.55.272,3.836,3.836,0,0,0-3.421.127,2.994,2.994,0,0,0-1.739.093,1.383,1.383,0,0,1-1.467-.308l-1.11-1.11.132-.132a.444.444,0,0,0,0-.628l-2.7-2.7a.444.444,0,0,0-.628,0l-6,6a.444.444,0,0,0,0,.628l2.7,2.7a.444.444,0,0,0,.628,0l.161-.161.783.783a1.358,1.358,0,0,1,.379.713A6.975,6.975,0,0,0,6.71,80.689l.147.147a1.6,1.6,0,0,0,1.16,2.7l.08,0a1.6,1.6,0,0,0,1.6,1.679h.036a1.6,1.6,0,0,0,2.728,1.165c.025-.025.049-.052.073-.078a1.494,1.494,0,0,0,1.885-.872l.045.045a1.494,1.494,0,0,0,2.456-.537,1.493,1.493,0,0,0,2.371-1.208,1.507,1.507,0,0,0-.042-.353,1.494,1.494,0,0,0,.917-2.327l.356-.356a6.973,6.973,0,0,0,1.941-3.714,1.2,1.2,0,0,1,.339-.636l1.325-1.325.233.233a.444.444,0,0,0,.628,0l2.7-2.7a.444.444,0,0,0,0-.628ZM3.141,74.744,1.073,72.675,6.448,67.3l2.069,2.069Zm5.378,7.695a.71.71,0,1,1,0-1A.711.711,0,0,1,8.519,82.439Zm1.676,1.676a.71.71,0,1,1,0-1A.7.7,0,0,1,10.195,84.114Zm1.633,1.633a.71.71,0,1,1,0-1A.706.706,0,0,1,11.828,85.747Zm7.544-3.41a.6.6,0,0,1-.855,0l-4.309-4.308a.444.444,0,1,0-.628.628L18.221,83.3a.605.605,0,0,1-.856.856l-.783-.783-.013-.014,0,0-3.6-3.6a.444.444,0,0,0-.628.628l3.611,3.611a.6.6,0,0,1-.861.849l-3.916-3.916a.444.444,0,1,0-.628.628l2.9,2.9,0,0a.605.605,0,0,1-.428,1.032.615.615,0,0,1-.115-.011,1.6,1.6,0,0,0-1.58-1.835H11.29a1.6,1.6,0,0,0-1.6-1.634l-.08,0a1.6,1.6,0,0,0-1.956-1.636l-.319-.319a6.09,6.09,0,0,1-1.687-3.2,2.243,2.243,0,0,0-.624-1.179L4.244,74.9,8.7,70.442l1.11,1.11a2.265,2.265,0,0,0,1.6.655,2.329,2.329,0,0,0,.8-.14,2.091,2.091,0,0,1,.388-.1l-2.75,2.75a1.781,1.781,0,0,0,2.519,2.519l1.381-1.381.374.374h0l.016.016.015.015h0l.013.012,5.208,5.208a.605.605,0,0,1,0,.856Zm2.8-6.626a2.083,2.083,0,0,0-.585,1.107,6.088,6.088,0,0,1-1.694,3.243l-.341.341-2.81-2.81c.061,0,.122.007.184.007a2.267,2.267,0,0,0,.866-.168.444.444,0,0,0-.336-.822c-1.143.468-2.514-.821-2.666-.97l-.008-.007-.016-.016h0l-.014-.014h0l-.374-.374L14.8,74.8a.444.444,0,1,0-.628-.628l-.737.737h0l-1.695,1.695a.893.893,0,1,1-1.263-1.263L13.4,72.421a2.946,2.946,0,0,1,3.3-.6,2.281,2.281,0,0,0,2.545-.453l.618-.618L23.5,74.386Zm2.5-1.406L19.9,69.539l2.069-2.069,4.766,4.766Z" transform="translate(0 -66.227)" fill="#48B7FD"/>
    </g>
  </g>
  <g id="Group_14" data-name="Group 14" transform="translate(24.673 5.905)">
    <g id="Group_13" data-name="Group 13" transform="translate(0 0)">
      <ellipse id="Ellipse_4" data-name="Ellipse 4" cx="0.444" cy="0.444" rx="0.444" ry="0.444" fill="#48B7FD"/>
    </g>
  </g>
  <g id="Group_16" data-name="Group 16" transform="translate(2.466 6.344)">
    <g id="Group_15" data-name="Group 15">
      <ellipse id="Ellipse_5" data-name="Ellipse 5" cx="0.444" cy="0.444" rx="0.444" ry="0.444" fill="#48B7FD"/>
    </g>
  </g>
</svg>
