<svg id="_004-joystick" data-name="004-joystick" xmlns="http://www.w3.org/2000/svg" width="25.374" height="25.371" viewBox="0 0 25.374 25.371">
  <g id="Group_18" data-name="Group 18" transform="translate(3.385 15.222)">
    <g id="Group_17" data-name="Group 17">
      <path id="Path_51" data-name="Path 51" d="M70.377,290.146H68.685v-1.691a.423.423,0,0,0-.423-.423H66.571a.423.423,0,0,0-.423.423v1.691H64.457a.423.423,0,0,0-.423.423v1.691a.423.423,0,0,0,.423.423h1.691v1.691a.423.423,0,0,0,.423.423h1.691a.423.423,0,0,0,.423-.423v-1.691h1.691a.423.423,0,0,0,.423-.423v-1.691A.423.423,0,0,0,70.377,290.146Zm-.423,1.691H68.262a.423.423,0,0,0-.423.423v1.691h-.846v-1.691a.423.423,0,0,0-.423-.423H64.88v-.846h1.691a.423.423,0,0,0,.423-.423v-1.691h.846v1.691a.423.423,0,0,0,.423.423h1.691Z" transform="translate(-64.034 -288.032)" fill="#48B7FD"/>
    </g>
  </g>
  <g id="Group_20" data-name="Group 20" transform="translate(0 0)">
    <g id="Group_19" data-name="Group 19" transform="translate(0)">
      <path id="Path_52" data-name="Path 52" d="M25.33,17.865a7.144,7.144,0,0,0-5.977-5.951,7.019,7.019,0,0,0-.746-.042H13.956V10.18H13.11V9.335a1.691,1.691,0,0,0-1.691-1.691H9.3a.846.846,0,0,1,0-1.691H16.07a1.691,1.691,0,0,0,0-3.383H13.956a.846.846,0,0,1-.846-.846V.032h-.846V1.723a1.691,1.691,0,0,0,1.691,1.691H16.07a.846.846,0,0,1,0,1.691H9.3a1.691,1.691,0,0,0,0,3.383h2.114a.846.846,0,0,1,.846.846v.846h-.846v1.691H6.768a6.9,6.9,0,0,0-.747.042A7.145,7.145,0,0,0,.045,17.867a6.766,6.766,0,0,0,10.284,6.521,4.141,4.141,0,0,1,1.856-.656,6.521,6.521,0,0,1,.983,0,4.173,4.173,0,0,1,1.885.663A6.766,6.766,0,0,0,25.33,17.865ZM12.264,11.026h.846v.846h-.846ZM23.02,22.584A5.916,5.916,0,0,1,15.5,23.673a4.99,4.99,0,0,0-2.27-.788q-.268-.019-.54-.019c-.192,0-.381.008-.57.023a4.974,4.974,0,0,0-2.236.781,5.92,5.92,0,0,1-9-5.708,6.339,6.339,0,0,1,5.226-5.206,6.082,6.082,0,0,1,.656-.038h11.84a6.22,6.22,0,0,1,.656.035,6.34,6.34,0,0,1,5.226,5.206A5.878,5.878,0,0,1,23.02,22.584Z" transform="translate(0 -0.032)" fill="#48B7FD"/>
    </g>
  </g>
  <g id="Group_22" data-name="Group 22" transform="translate(16.916 14.377)">
    <g id="Group_21" data-name="Group 21">
      <path id="Path_53" data-name="Path 53" d="M321.725,272.032a1.691,1.691,0,1,0,1.691,1.691A1.691,1.691,0,0,0,321.725,272.032Zm0,2.537a.846.846,0,1,1,.846-.846A.846.846,0,0,1,321.725,274.569Z" transform="translate(-320.034 -272.032)" fill="#48B7FD"/>
    </g>
  </g>
  <g id="Group_24" data-name="Group 24" transform="translate(16.916 19.451)">
    <g id="Group_23" data-name="Group 23">
      <path id="Path_54" data-name="Path 54" d="M321.725,368.032a1.691,1.691,0,1,0,1.691,1.691A1.691,1.691,0,0,0,321.725,368.032Zm0,2.537a.846.846,0,1,1,.846-.846A.846.846,0,0,1,321.725,370.569Z" transform="translate(-320.034 -368.032)" fill="#48B7FD"/>
    </g>
  </g>
  <g id="Group_26" data-name="Group 26" transform="translate(13.956 16.914)">
    <g id="Group_25" data-name="Group 25">
      <path id="Path_55" data-name="Path 55" d="M265.725,320.032a1.691,1.691,0,1,0,1.691,1.691A1.691,1.691,0,0,0,265.725,320.032Zm0,2.537a.846.846,0,1,1,.846-.846A.846.846,0,0,1,265.725,322.569Z" transform="translate(-264.034 -320.032)" fill="#48B7FD"/>
    </g>
  </g>
  <g id="Group_28" data-name="Group 28" transform="translate(19.875 16.914)">
    <g id="Group_27" data-name="Group 27">
      <path id="Path_56" data-name="Path 56" d="M377.725,320.032a1.691,1.691,0,1,0,1.691,1.691A1.691,1.691,0,0,0,377.725,320.032Zm0,2.537a.846.846,0,1,1,.846-.846A.846.846,0,0,1,377.725,322.569Z" transform="translate(-376.034 -320.032)" fill="#48B7FD"/>
    </g>
  </g>
</svg>
