<svg id="_005-money" data-name="005-money" xmlns="http://www.w3.org/2000/svg" width="25.374" height="25.077" viewBox="0 0 25.374 25.077">
  <g id="Group_30" data-name="Group 30" transform="translate(14.865 12.548)">
    <g id="Group_29" data-name="Group 29">
      <path id="Path_57" data-name="Path 57" d="M302.035,259.777a.954.954,0,1,1,1.09-.944.5.5,0,1,0,.991,0,1.972,1.972,0,0,0-1.586-1.879V256.7a.5.5,0,0,0-.991,0v.258a1.972,1.972,0,0,0-1.586,1.879,2.014,2.014,0,0,0,2.081,1.935.954.954,0,1,1-1.09.944.5.5,0,1,0-.991,0,1.972,1.972,0,0,0,1.586,1.879v.214a.5.5,0,0,0,.991,0v-.214a1.972,1.972,0,0,0,1.586-1.879A2.014,2.014,0,0,0,302.035,259.777Z" transform="translate(-299.954 -256.201)" fill="#48B7FD"/>
    </g>
  </g>
  <g id="Group_32" data-name="Group 32" transform="translate(19.027 10.793)">
    <g id="Group_31" data-name="Group 31">
      <path id="Path_58" data-name="Path 58" d="M387.272,223.168a6.457,6.457,0,0,0-2.638-2.334.5.5,0,1,0-.429.893,5.456,5.456,0,0,1,2.457,7.473.5.5,0,1,0,.875.466,6.45,6.45,0,0,0-.265-6.5Z" transform="translate(-383.924 -220.785)" fill="#48B7FD"/>
    </g>
  </g>
  <g id="Group_34" data-name="Group 34" transform="translate(17.197 10.209)">
    <g id="Group_33" data-name="Group 33">
      <path id="Path_59" data-name="Path 59" d="M347.529,209H347.5a.5.5,0,0,0,0,.991h.031a.5.5,0,0,0,0-.991Z" transform="translate(-347 -209.001)" fill="#48B7FD"/>
    </g>
  </g>
  <g id="Group_36" data-name="Group 36" transform="translate(10.507 13.367)">
    <g id="Group_35" data-name="Group 35">
      <path id="Path_60" data-name="Path 60" d="M216.086,280.913a5.456,5.456,0,0,1-2.457-7.473.5.5,0,0,0-.875-.466,6.446,6.446,0,0,0,2.9,8.832.5.5,0,1,0,.429-.893Z" transform="translate(-212.002 -272.711)" fill="#48B7FD"/>
    </g>
  </g>
  <g id="Group_38" data-name="Group 38" transform="translate(15.679 22.103)">
    <g id="Group_37" data-name="Group 37" transform="translate(0 0)">
      <path id="Path_61" data-name="Path 61" d="M316.9,449h-.029a.5.5,0,0,0,0,.991h.033a.5.5,0,1,0,0-.991Z" transform="translate(-316.378 -448.999)" fill="#48B7FD"/>
    </g>
  </g>
  <g id="Group_40" data-name="Group 40" transform="translate(0 0)">
    <g id="Group_39" data-name="Group 39" transform="translate(0 0)">
      <path id="Path_62" data-name="Path 62" d="M19.2,11.533a2.275,2.275,0,0,0-.22-.4h1.29a2.28,2.28,0,0,0,0-4.559H16.3A2.278,2.278,0,0,0,14.422,3H2.28a2.28,2.28,0,0,0,0,4.559H6.248a2.273,2.273,0,0,0,0,2.577H4.956A2.278,2.278,0,0,0,3.539,14.2a2.276,2.276,0,0,0,0,3.568,2.276,2.276,0,0,0,0,3.568A2.278,2.278,0,0,0,4.956,25.4H10.8a8.423,8.423,0,1,0,8.4-13.868Zm1.07-3.973a1.289,1.289,0,0,1,0,2.577H8.128a1.289,1.289,0,0,1,0-2.577ZM2.28,6.568a1.289,1.289,0,0,1,0-2.577H14.422a1.289,1.289,0,0,1,0,2.577Zm2.676,4.559H17.1a1.288,1.288,0,0,1,.562.129c-.234-.02-.471-.03-.711-.03A8.4,8.4,0,0,0,10.987,13.7H4.956a1.289,1.289,0,0,1,0-2.577Zm0,3.568h5.185a8.4,8.4,0,0,0-1.274,2.577H4.956a1.289,1.289,0,0,1,0-2.577Zm0,3.568H8.639a8.432,8.432,0,0,0-.031,2.577H4.956a1.289,1.289,0,0,1,0-2.577Zm0,6.145a1.289,1.289,0,0,1,0-2.577H8.811A8.392,8.392,0,0,0,10,24.41Zm11.993,2.676a7.434,7.434,0,1,1,7.434-7.434A7.442,7.442,0,0,1,16.949,27.086Z" transform="translate(0 -3)" fill="#48B7FD"/>
    </g>
  </g>
</svg>
