<svg id="_006-dialogue" data-name="006-dialogue" xmlns="http://www.w3.org/2000/svg" width="25.374" height="25.374" viewBox="0 0 25.374 25.374">
  <path id="Path_63" data-name="Path 63" d="M22.9,0H10.011A2.481,2.481,0,0,0,7.533,2.478v4.46H2.478A2.481,2.481,0,0,0,0,9.416V19.923A2.481,2.481,0,0,0,2.478,22.4h.991v2.478a.5.5,0,0,0,.846.35L7.144,22.4h8.22a2.481,2.481,0,0,0,2.478-2.478v-4.46h.991V17.94a.5.5,0,0,0,.846.35l2.828-2.828h.786c1.264,0,2.081-.973,2.081-2.478V2.478A2.481,2.481,0,0,0,22.9,0ZM16.85,19.923a1.488,1.488,0,0,1-1.487,1.487H6.938a.5.5,0,0,0-.35.145L4.46,23.682V21.905a.5.5,0,0,0-.5-.5H2.478A1.488,1.488,0,0,1,.991,19.923V9.416A1.488,1.488,0,0,1,2.478,7.929H15.363A1.488,1.488,0,0,1,16.85,9.416Zm7.533-6.938c0,.555-.142,1.487-1.09,1.487H22.3a.5.5,0,0,0-.35.145l-2.128,2.128V14.967a.5.5,0,0,0-.5-.5H17.841V10.9h3.073a.5.5,0,0,0,0-.991H17.841v-.5a2.481,2.481,0,0,0-2.478-2.478H8.524V2.478A1.488,1.488,0,0,1,10.011.991H22.9a1.488,1.488,0,0,1,1.487,1.487Z" transform="translate(0 0)" fill="#48B7FD"/>
  <path id="Path_64" data-name="Path 64" d="M241.416,80H232.5a.5.5,0,1,0,0,.991h8.921a.5.5,0,0,0,0-.991Z" transform="translate(-220.502 -76.035)" fill="#48B7FD"/>
  <path id="Path_65" data-name="Path 65" d="M374.478,140H372.5a.5.5,0,0,0,0,.991h1.982a.5.5,0,1,0,0-.991Z" transform="translate(-353.564 -133.062)" fill="#48B7FD"/>
  <path id="Path_66" data-name="Path 66" d="M80.5,220.991a.5.5,0,1,0-.5-.5A.5.5,0,0,0,80.5,220.991Z" transform="translate(-76.035 -209.097)" fill="#48B7FD"/>
  <path id="Path_67" data-name="Path 67" d="M127.434,220H120.5a.5.5,0,1,0,0,.991h6.938a.5.5,0,1,0,0-.991Z" transform="translate(-114.053 -209.097)" fill="#48B7FD"/>
  <path id="Path_68" data-name="Path 68" d="M165.452,280H160.5a.5.5,0,0,0,0,.991h4.956a.5.5,0,0,0,0-.991Z" transform="translate(-152.071 -266.124)" fill="#48B7FD"/>
  <path id="Path_69" data-name="Path 69" d="M80.5,280.991h1.982a.5.5,0,0,0,0-.991H80.5a.5.5,0,0,0,0,.991Z" transform="translate(-76.035 -266.124)" fill="#48B7FD"/>
  <path id="Path_70" data-name="Path 70" d="M87.352,340H82.5a.5.5,0,1,0,0,.991h4.857a.5.5,0,0,0,0-.991Z" transform="translate(-77.936 -323.15)" fill="#48B7FD"/>
</svg>
