<svg id="_007-luggage" data-name="007-luggage" xmlns="http://www.w3.org/2000/svg" width="16.964" height="29.936" viewBox="0 0 16.964 29.936">
  <path id="Path_71" data-name="Path 71" d="M14.469,7.983H11.475V2.495h1a.5.5,0,0,0,.5-.5V.5a.5.5,0,0,0-.5-.5H4.49a.5.5,0,0,0-.5.5V2a.5.5,0,0,0,.5.5h1V7.983H2.495A2.5,2.5,0,0,0,0,10.478V25.944a2.5,2.5,0,0,0,2.495,2.495v1a.5.5,0,0,0,.5.5h2a.5.5,0,0,0,.5-.5v-1h5.987v1a.5.5,0,0,0,.5.5h2a.5.5,0,0,0,.5-.5v-1a2.5,2.5,0,0,0,2.495-2.495V10.478A2.5,2.5,0,0,0,14.469,7.983ZM4.989,1h6.985v.5H4.989Zm1.5,1.5h3.991V7.983H6.486Zm-2,26.443h-1v-.5h1Zm8.981,0h-1v-.5h1Zm2.495-2.994a1.5,1.5,0,0,1-1.5,1.5H2.495a1.5,1.5,0,0,1-1.5-1.5V10.478a1.5,1.5,0,0,1,1.5-1.5H14.469a1.5,1.5,0,0,1,1.5,1.5Zm0,0" transform="translate(0 0)" fill="#48B7FD"/>
  <path id="Path_72" data-name="Path 72" d="M128.5,160a.5.5,0,0,0-.5.5v15.467a.5.5,0,1,0,1,0V160.5A.5.5,0,0,0,128.5,160Zm0,0" transform="translate(-120.017 -150.021)" fill="#48B7FD"/>
  <path id="Path_73" data-name="Path 73" d="M192.5,176a.5.5,0,0,0-.5.5V189.97a.5.5,0,0,0,1,0V176.5A.5.5,0,0,0,192.5,176Zm0,0" transform="translate(-180.026 -165.024)" fill="#48B7FD"/>
  <path id="Path_74" data-name="Path 74" d="M64.5,176a.5.5,0,0,0-.5.5V189.97a.5.5,0,0,0,1,0V176.5A.5.5,0,0,0,64.5,176Zm0,0" transform="translate(-60.009 -165.024)" fill="#48B7FD"/>
</svg>
