<svg xmlns="http://www.w3.org/2000/svg" width="24" height="24" viewBox="0 0 24 24">
  <g id="art-and-design" transform="translate(-9.993 -9.999)">
    <path id="Path_87" data-name="Path 87" d="M21.994,10a12,12,0,1,0,8.485,3.514A12,12,0,0,0,21.994,10ZM30.065,30.07a11.414,11.414,0,1,1,0-16.142A11.414,11.414,0,0,1,30.065,30.07Z" fill="#48B7FD"/>
    <path id="Path_88" data-name="Path 88" d="M54.865,44.55A10.314,10.314,0,1,0,65.18,54.864,10.326,10.326,0,0,0,54.865,44.55Zm0,20.043a9.729,9.729,0,1,1,9.729-9.729A9.74,9.74,0,0,1,54.865,64.593Z" transform="translate(-32.872 -32.866)" fill="#48B7FD"/>
    <path id="Path_89" data-name="Path 89" d="M116.9,85.717a8.3,8.3,0,0,0-7.09,3.977.293.293,0,0,0,.5.306,7.716,7.716,0,0,1,6.591-3.7.293.293,0,0,0,0-.585Z" transform="translate(-94.902 -72.024)" fill="#48B7FD"/>
  </g>
</svg>
