<svg xmlns="http://www.w3.org/2000/svg" width="24" height="25.128" viewBox="0 0 24 25.128">
  <g id="video-camera" transform="translate(-0.357 0)">
    <path id="Path_81" data-name="Path 81" d="M189.461,294.889H194a.646.646,0,0,0,.645-.644v-1.6A.646.646,0,0,0,194,292h-4.54a.646.646,0,0,0-.645.645v1.6A.646.646,0,0,0,189.461,294.889Zm.218-2.029h4.1v1.165h-4.1Zm0,0" transform="translate(-178.291 -276.242)" fill="#48B7FD"/>
    <path id="Path_82" data-name="Path 82" d="M2.552,8.969a1.354,1.354,0,0,0-.99,1.3v8.44a1.355,1.355,0,0,0,1.353,1.353H8.751L4.923,24.411a.432.432,0,0,0,.647.571l3.7-4.205V24.7a.432.432,0,1,0,.863,0V20.776l3.7,4.205a.432.432,0,0,0,.647-.571l-3.827-4.347H16.5a1.355,1.355,0,0,0,1.354-1.353V17l4.255,2.181.838.43a.975.975,0,0,0,.444.108.963.963,0,0,0,.308-.053.991.991,0,0,0,.2-.09.964.964,0,0,0,.464-.829V10.231a.971.971,0,0,0-1.414-.863L22.1,9.8,17.85,11.978V10.271a1.354,1.354,0,0,0-.99-1.3A4.889,4.889,0,1,0,9.706,2.886,4.889,4.889,0,1,0,2.552,8.969Zm20.89,1.171a.1.1,0,0,1,.051.092V18.75a.1.1,0,0,1-.051.092.119.119,0,0,1-.037.014l-.008,0h0a.105.105,0,0,1-.059-.012l-.6-.309V10.445l.6-.309A.1.1,0,0,1,23.442,10.14Zm-1.572.748v7.206l-4.02-2.061V12.949ZM16.5,9.78a.491.491,0,0,1,.49.49v8.441a.491.491,0,0,1-.49.49H2.915a.491.491,0,0,1-.49-.49v-8.44a.491.491,0,0,1,.49-.491ZM8.017,8.917A4.922,4.922,0,0,0,9.706,6.894a4.922,4.922,0,0,0,1.689,2.022ZM14.164.864a4.027,4.027,0,1,1-4.027,4.027A4.027,4.027,0,0,1,14.164.864Zm-8.917,0A4.027,4.027,0,1,1,1.221,4.891,4.027,4.027,0,0,1,5.247.864Zm0,0" transform="translate(0 0)" fill="#48B7FD"/>
    <path id="Path_83" data-name="Path 83" d="M233.683,69.35a1.288,1.288,0,1,0-1.288-1.288A1.288,1.288,0,0,0,233.683,69.35Zm0-1.713a.425.425,0,1,1-.425.425A.425.425,0,0,1,233.683,67.637Zm0,0" transform="translate(-219.518 -63.171)" fill="#48B7FD"/>
    <path id="Path_84" data-name="Path 84" d="M68.409,69.35a1.288,1.288,0,1,0-1.288-1.288A1.288,1.288,0,0,0,68.409,69.35Zm0-1.713a.425.425,0,1,1-.425.425A.425.425,0,0,1,68.409,67.637Zm0,0" transform="translate(-63.162 -63.171)" fill="#48B7FD"/>
    <path id="Path_85" data-name="Path 85" d="M254.586,193.711a1.172,1.172,0,1,0-1.172-1.172A1.172,1.172,0,0,0,254.586,193.711Zm0-1.481a.309.309,0,1,1-.309.309.309.309,0,0,1,.309-.309Zm0,0" transform="translate(-239.404 -181.042)" fill="#48B7FD"/>
    <path id="Path_86" data-name="Path 86" d="M53.41,330.037a.432.432,0,0,0,.432.432h1.776a.432.432,0,1,0,0-.863H53.842A.432.432,0,0,0,53.41,330.037Zm0,0" transform="translate(-50.191 -311.822)" fill="#48B7FD"/>
  </g>
</svg>
