<svg xmlns="http://www.w3.org/2000/svg" width="9.949" height="15.917" viewBox="0 0 9.949 15.917">
  <path id="flame" d="M117.364,15.9a.172.172,0,0,0,.224-.244,3.935,3.935,0,0,1-.226-3.9c1.3-2.906,2.091-4.411,2.091-4.411a10.463,10.463,0,0,0,1.561,3.318c1.1,1.5,1.7,3.394.73,4.968a.172.172,0,0,0,.224.243,4.86,4.86,0,0,0,2.7-4.292,8.376,8.376,0,0,0-.448-3.117,6.1,6.1,0,0,0-1.586-2.792.172.172,0,0,0-.284.141c.112,1.807-.568,2.266-.955,1.232a6.325,6.325,0,0,1-.245-2A6.827,6.827,0,0,0,119.8.9a4.7,4.7,0,0,0-.846-.86.172.172,0,0,0-.276.148,11,11,0,0,1-2.461,7.155c-2.237,3.117-1.37,5.511-1.063,6.159A5.075,5.075,0,0,0,117.364,15.9Z" transform="translate(-114.73 0.001)" fill="#e6b01c"/>
</svg>
